<?xml version="1.0" encoding="utf-8"?>
<!-- Generator: Adobe Illustrator 15.0.0, SVG Export Plug-In . SVG Version: 6.00 Build 0)  -->
<!DOCTYPE svg PUBLIC "-//W3C//DTD SVG 1.1//EN" "http://www.w3.org/Graphics/SVG/1.1/DTD/svg11.dtd">
<svg version="1.1" id="oldspice" xmlns="http://www.w3.org/2000/svg" xmlns:xlink="http://www.w3.org/1999/xlink" x="0px" y="0px"
	 width="110.576px" height="28.74px" viewBox="0 0 110.576 28.74" enable-background="new 0 0 110.576 28.74" xml:space="preserve">
<g>
	<path fill="#ffffff" d="M68.472,28.135l0.357-0.182l0.891-1.337l0.627-1.249l1.519-2.233l0.354-0.357
		c0.537,0.537,1.34,0.895,2.412,0.982c1.428-0.18,2.768-0.625,3.84-1.518l1.428-0.982l1.34-1.607l1.429-2.768v-0.179
		c0.269-0.714,0.269-1.339,0-2.054l-0.446-0.534l-0.447-0.357l-0.623-0.358l-0.895-0.178l-1.25,0.178
		c-0.624,0.179-1.249,0.536-1.697,0.892l-0.355,0.18v-0.18l0.355-0.892h-2.41c-0.267,0-0.355,0-0.355,0.179l-0.534,1.07
		l-7.769,13.038l-0.09,0.446l1.162-0.182L68.472,28.135L68.472,28.135z M75.882,16.706c0.534-0.803,1.249-1.52,2.322-2.054
		l1.427-0.534c0.356,0,0.536,0.177,0.625,0.357l0.356,0.711l-0.535,1.697l-0.18,0.18l-0.268,0.625l-1.427,2.32l-1.163,1.34
		l-1.785,1.34l-1.428,0.268l-0.805-0.714l-0.09-0.716l0.09-0.446l0.269-0.534l0.269-0.357l0.269-0.355
		C74.453,18.76,75.078,17.688,75.882,16.706L75.882,16.706z"/>
	<path fill="#ffffff" d="M23.652,2.064c-1.071-0.983-2.588-1.429-4.375-1.429c-2.41,0-4.82,0.625-7.409,1.965
		c-2.68,1.25-5.089,3.036-7.143,5.267c-2.143,2.322-3.482,5.09-4.107,8.304c-0.268,2.145-0.089,3.93,0.625,5.27
		c0.714,1.338,1.518,2.408,2.589,3.123c1.07,0.715,2.053,1.071,2.857,1.162c3.928,0.445,7.142-0.18,9.999-1.877
		c2.768-1.605,5-3.748,6.696-6.517c1.608-2.767,2.589-5.446,3.036-8.214c0.18-1.25,0.09-2.5-0.357-3.838
		C25.617,4.028,24.902,2.957,23.652,2.064L23.652,2.064z M6.511,11.26c1.428-2.5,3.214-4.731,5.357-6.518
		c2.052-1.786,4.374-2.767,6.874-2.857c1.786,0.179,2.858,0.894,3.482,2.055c0.536,1.25,0.803,2.321,0.714,3.304
		c0,1.249-0.446,2.856-1.338,4.821c-0.715,2.054-1.786,4.106-3.214,6.073c-1.429,1.963-3.036,3.568-4.91,4.818
		c-1.786,1.25-3.929,1.695-6.161,1.518c-1.25-0.268-2.054-0.714-2.5-1.695c-0.447-0.895-0.715-1.785-0.805-2.77l0.09-1.873
		C4.368,15.992,5.17,13.761,6.511,11.26L6.511,11.26z"/>
	<path fill="#ffffff" d="M89.63,10.813l0.715,0.447c0.803,0,1.518-0.268,1.965-0.714l0.357-0.804l-0.27-0.714
		C92.22,8.849,92.042,8.76,91.952,8.76h-0.715c-0.625,0.089-1.07,0.356-1.34,0.713C89.63,9.92,89.452,10.368,89.63,10.813
		L89.63,10.813z"/>
	<path fill="#ffffff" d="M72.577,1.885L72.31,1.707L71.237,1.26l-1.248-0.445c-2.232-0.445-4.375-0.445-6.43,0.178
		c-0.715,0.089-1.428,0.268-1.963,0.536c-0.805,0.268-1.43,0.625-2.054,1.071l-1.251,1.072L57.579,5.1
		c-0.268,0.447-0.268,0.894-0.268,1.517l0.444,1.162l0.626,1.428l0.803,1.071l2.947,2.947l0.18,0.357l1.429,1.427l1.694,2.59
		l0.356,0.715l0.179,0.981l-0.179,0.981l-0.179,0.625l-0.445,0.894L64.72,22.33l-1.34,0.981l-0.803,0.357l-0.445,0.268l-1.072,0.445
		l-1.517,0.358l-2.858,0.089c-1.249-0.18-2.499-0.536-3.569-1.071c-0.982-0.625-1.608-1.34-1.876-2.144l-0.178-0.893v-1.429
		c0.178-0.714,0.537-1.339,1.072-2.231l1.071-1.072c0.715-0.625,1.339-1.072,2.053-1.34c0.626-0.356,1.43-0.623,2.232-0.891
		c0.179-0.089,0.179-0.179,0.09-0.358h-0.626h-1.249l-2.232,0.625c-0.713,0.267-1.429,0.623-2.054,1.07l-1.427,1.072
		c-0.625,0.536-1.072,1.161-1.341,1.787l-0.535,1.518v0.893l0.179,0.894l0.625,1.25l1.427,1.339l1.43,0.895l3.392,0.982l5-0.18
		l2.767-0.535l0.27-0.09c1.339-0.447,2.589-1.072,3.66-1.786l1.695-1.875c0.447-0.624,0.805-1.339,0.895-2.053l0.178-0.804
		l-0.533-2.145l-0.716-1.072c-0.714-1.159-1.696-2.409-2.946-3.569l-0.355-0.357l-1.339-1.161l-2.144-2.32l-0.09-0.27l-0.359-0.532
		l-0.535-1.339c0-0.625,0-1.072,0.179-1.519l0.269-0.268l0.535-0.625L62.312,2.6l0.535-0.269l1.34-0.535l2.768-0.357h0.715
		l1.43,0.268l1.873,1.072l0.627,0.893l0.268,0.536v0.268V5.28l-0.18,0.715l-0.715,0.893l-1.07,1.07L68.74,8.583v0.268h1.069
		l0.358-0.089c0.356-0.179,0.626-0.269,0.804-0.357l1.786-0.804l0.179-0.179l0.269-0.177l0.444-0.446l0.449-0.625l0.355-0.803
		c0.089-0.804,0-1.34-0.18-1.787C73.918,2.867,73.381,2.331,72.577,1.885L72.577,1.885z"/>
	<path fill="#ffffff" d="M90.522,13.225h-2.945l-3.93,6.875l-0.535,1.159c-0.09,0.446-0.09,0.894,0,1.25
		c0.18,0.535,0.625,0.804,1.34,1.07l2.589-0.624l1.428-0.803l0.358-0.357l1.07-0.803l0.181,0.087
		c0.089,0.805,0.534,1.43,1.427,1.965c0.893,0.446,1.964,0.535,3.036,0.356l0.981-0.268l0.356-0.09l1.25-0.535l2.411-1.695
		l0.268,0.267l0.09,0.626l0.179,0.355c0.446,0.895,1.429,1.34,2.769,1.519h1.16l0.895-0.267c2.052-0.805,3.57-1.787,4.552-3.035
		l0.356-0.627l-0.356-0.088l-2.5,2.143c-0.623,0.355-1.339,0.714-2.231,0.982h-1.339c-0.536-0.18-0.804-0.535-0.894-0.894v-1.25
		l0.179-0.625l0.804-1.784l1.697-2.68l1.07-1.161c0.445-0.445,0.803-0.623,1.25-0.713c0.355,0.09,0.535,0.268,0.535,0.447v0.802
		l-0.535,1.25l-0.447,0.535l-1.249,1.25l-1.34,0.535h-0.356c-0.179,0.09-0.268,0.18-0.268,0.27l0.535,0.178l0.537-0.089
		c2.052-0.356,3.658-1.252,4.642-2.59c0.267-0.446,0.446-0.894,0.536-1.339v-0.355c0-0.625-0.447-1.072-1.34-1.43l-0.535-0.089
		h-0.447c-1.07,0.089-2.143,0.446-3.035,1.072l-0.625,0.356l-1.963,1.697l-1.695,2.321l-0.537,1.072l-0.09,0.088l-1.963,1.605
		c-0.805,0.627-1.697,0.984-2.502,1.162h-1.517c-0.447-0.178-0.804-0.535-0.894-1.071l-0.088-0.714l0.088-0.445v-0.357l0.356-0.715
		l1.429-2.411c0.715-1.071,1.785-2.141,3.303-2.944l0.982-0.09l0.536,0.447v0.356c0.09,0.267,0,0.536-0.446,0.893l-1.607,0.894
		l-0.268,0.089l-0.268,0.18l0.533,0.178h0.984l1.07-0.178c0.895-0.446,1.338-0.894,1.338-1.519v-0.445l-0.625-0.982
		c-0.355-0.268-0.803-0.357-1.249-0.447h-1.249c-0.804,0.09-1.43,0.357-2.054,0.536l-0.447,0.268
		c-0.894,0.535-1.606,1.07-2.319,1.786c-1.162,1.25-2.056,2.502-2.68,3.84l-0.715,0.98l-2.77,1.786H86.06
		c-0.18-0.269-0.269-0.626-0.18-0.802l0.805-1.698L90.522,13.225L90.522,13.225z"/>
	<path fill="#ffffff" d="M47.937,7.333h-1.874l-1.072,0.176l-3.661,6.073l-0.356,0.447l-0.357-0.447
		c-0.269-0.268-0.714-0.446-1.34-0.625l-0.982,0.089l-0.268,0.09c-1.25,0.357-2.321,0.803-3.303,1.516l-2.322,1.965
		c-0.714,0.892-1.25,1.965-1.696,3.036l-0.269,0.714l-0.357,0.358c-0.625,0.534-1.428,0.98-2.411,1.338l-0.98,0.18l-0.269-0.446
		l0.625-1.696l7.5-12.767h-2.857L24.01,20.547l-0.446,1.16c0,0.446,0,0.894,0.179,1.25c0.267,0.356,0.535,0.535,1.16,0.624h0.357
		l2.409-0.624l2.768-1.606l0.09,0.268l0.447,1.072c0.535,0.625,1.25,0.892,2.321,0.892l2.232-0.624l0.981-0.714l0.714-0.802
		l0.18,0.354v0.714l0.356,0.625c0.268,0.268,0.536,0.445,0.983,0.445h0.893l1.518-0.624c1.339-0.714,2.32-1.517,3.035-2.41
		l0.089-0.356h-0.357l-2.32,1.695l-0.536,0.357l-0.447,0.178l-0.625-0.089c-0.178-0.269-0.267-0.535-0.178-0.892v-0.359L47.848,7.51
		L47.937,7.333L47.937,7.333z M34.545,17.688l1.785-2.232l1.25-1.161c0.446-0.267,0.893-0.445,1.607-0.534l0.626,0.178l0.446,0.892
		l-0.446,1.518l-2.411,3.752l-1.251,1.428l-0.892,0.715l-1.338,0.535c-0.357,0.089-0.715,0-0.893-0.269
		c-0.179-0.268-0.179-0.714-0.179-1.159l0.089-0.625l0.625-1.607l0.178-0.268L34.545,17.688L34.545,17.688z"/>
</g>
</svg>
